<svg xmlns="http://www.w3.org/2000/svg" xmlns:xlink="http://www.w3.org/1999/xlink" version="1.1" x="0px" y="0px" viewBox="0 0 91 91" enable-background="new 0 0 91 91" xml:space="preserve" style="max-width:100%" height="100%"><path fill="none" d="M49.864,52.23h10.373c0.198-1.031,0.441-1.957,0.728-2.756c0.068-0.197,0.15-0.39,0.241-0.573H49.864V52.23z" style=""></path><path fill="none" d="M75.362,54.276l-0.243-0.151l-0.033-0.285c-0.21-1.79-1.009-6.022-3.915-6.645  c-1.114-0.242-2.201-0.364-3.231-0.364c-1.782,0-4.911,0.394-5.856,3.043c-0.307,0.861-0.564,1.888-0.764,3.053l-0.085,0.492H48.676  v-5.706h11.403V26.255H30.207v21.458H41.61v5.111v0.595v4.092h-1.188v-4.092H29.046l-0.084-0.494  c-0.198-1.17-0.457-2.196-0.766-3.046c-0.946-2.654-4.073-3.048-5.853-3.048c-1.029,0-2.115,0.122-3.227,0.362  c-3.008,0.645-3.757,5.248-3.915,6.644l-0.033,0.286l-0.245,0.153c-3.034,1.882-5.044,5.131-5.379,8.689  c-0.019,0.175-1.832,16.666-1.988,18.802c-0.133,1.787,0.687,5.17,4.604,6.505c3.406,1.16,7.049,0.157,9.373-2.489  c0.722-0.828,2.174-3.12,4.315-6.805l0.427-0.736l0.544,0.656c1.563,1.882,3.86,2.962,6.302,2.962c3.28,0,6.229-1.95,7.512-4.971  l0.153-0.362h8.511l0.152,0.362c1.279,3.021,4.228,4.971,7.514,4.971c2.509,0,4.845-1.131,6.41-3.104l0.543-0.685l0.438,0.756  c2.135,3.696,3.657,6.102,4.4,6.959c2.322,2.643,5.96,3.646,9.371,2.486c3.912-1.335,4.736-4.718,4.608-6.508  c-0.163-2.133-1.976-18.624-1.994-18.79C80.403,59.409,78.396,56.161,75.362,54.276z M18.836,56.026h5.703v4.049l-2.852,2.875  l-2.852-2.875V56.026z M14.294,66.277v-5.702h4.032l3.077,2.853l-3.077,2.85H14.294z M24.539,70.825h-5.703v-4.04l2.852-2.884  l2.852,2.884V70.825z M25.038,66.277l-2.878-2.85l2.877-2.853h4.044v5.702H25.038z M33.12,78.533c-2.668,0-4.838-2.173-4.838-4.841  c0-2.663,2.17-4.827,4.838-4.827c2.663,0,4.829,2.164,4.829,4.827C37.949,76.36,35.783,78.533,33.12,78.533z M33.743,44.896V28.861  h22.801v16.036H33.743z M69.074,54.689c1.78,0,3.229,1.444,3.229,3.218c0,1.78-1.449,3.229-3.229,3.229  c-1.774,0-3.219-1.448-3.219-3.229C65.855,56.134,67.3,54.689,69.074,54.689z M57.283,78.533c-2.664,0-4.833-2.173-4.833-4.841  c0-2.663,2.169-4.827,4.833-4.827c2.666,0,4.835,2.164,4.835,4.827C62.118,76.36,59.949,78.533,57.283,78.533z M63.305,66.911  c-1.779,0-3.226-1.447-3.226-3.223c0-1.778,1.446-3.225,3.226-3.225c1.777,0,3.225,1.446,3.225,3.225  C66.529,65.464,65.082,66.911,63.305,66.911z M69.074,72.678c-1.774,0-3.219-1.444-3.219-3.218c0-1.78,1.444-3.229,3.219-3.229  c1.78,0,3.229,1.449,3.229,3.229C72.304,71.233,70.854,72.678,69.074,72.678z M74.851,66.911c-1.778,0-3.223-1.447-3.223-3.223  c0-1.778,1.444-3.225,3.223-3.225s3.227,1.446,3.227,3.225C78.077,65.464,76.629,66.911,74.851,66.911z" style=""></path>
<path fill="none" d="M40.422,52.23v-3.329h-11.35c0.091,0.184,0.173,0.376,0.243,0.573c0.288,0.792,0.533,1.718,0.73,2.756H40.422z" style=""></path>
<circle fill="none" cx="74.851" cy="63.687" r="2.035" style=""></circle>
<polygon fill="none" points="23.35,59.585 23.35,57.215 20.024,57.215 20.024,59.585 21.688,61.263 " style=""></polygon>
<path fill="none" d="M34.966,43.673H55.32V30.084H34.966V43.673z M48.989,31.533c1.265,0,2.296,1.028,2.296,2.296  c0,1.265-1.031,2.296-2.296,2.296c-1.267,0-2.297-1.031-2.297-2.296C46.692,32.561,47.723,31.533,48.989,31.533z M38.578,38.214  V37.62h3.792v-3.791h0.594h0.594v3.791h3.792v0.594v0.595h-3.792v3.789h-0.594h-0.594v-3.789h-3.792V38.214z" style=""></path><path fill="none" d="M69.074,59.947c1.125,0,2.041-0.914,2.041-2.04c0-1.119-0.916-2.029-2.041-2.029  c-1.119,0-2.029,0.91-2.029,2.029C67.045,59.033,67.955,59.947,69.074,59.947z" style=""></path><path fill="none" d="M33.12,70.055c-2.013,0-3.649,1.631-3.649,3.638c0,2.013,1.637,3.652,3.649,3.652c2.007,0,3.64-1.64,3.64-3.652  C36.76,71.686,35.127,70.055,33.12,70.055z" style=""></path><path fill="none" d="M69.074,67.42c-1.119,0-2.029,0.913-2.029,2.04c0,1.119,0.91,2.029,2.029,2.029c1.125,0,2.041-0.91,2.041-2.029  C71.115,68.333,70.199,67.42,69.074,67.42z" style=""></path><circle fill="none" cx="63.305" cy="63.687" r="2.035" style=""></circle><path fill="none" d="M57.283,70.055c-2.01,0-3.645,1.631-3.645,3.638c0,2.013,1.635,3.652,3.645,3.652s3.646-1.64,3.646-3.652  C60.93,71.686,59.293,70.055,57.283,70.055z" style=""></path><polygon fill="none" points="20.024,67.272 20.024,69.637 23.35,69.637 23.35,67.272 21.688,65.592 " style=""></polygon><polygon fill="none" points="23.849,63.428 25.526,65.089 27.892,65.089 27.892,61.764 25.527,61.764 " style=""></polygon><polygon fill="none" points="17.859,61.764 15.483,61.764 15.483,65.089 17.86,65.089 19.653,63.428 " style=""></polygon><path fill="currentColor" d="M59.639,15.779c0.724,0.888,1.372,1.851,1.922,2.863l1.045-0.569c-0.586-1.077-1.275-2.103-2.048-3.046  L59.639,15.779z" style=""></path><path fill="currentColor" d="M50.41,8.508l-0.303,1.15c1.114,0.292,2.204,0.692,3.239,1.187l0.514-1.073  C52.757,9.244,51.596,8.82,50.41,8.508z" style=""></path><path fill="currentColor" d="M58.888,13.231c-0.89-0.843-1.86-1.606-2.888-2.266l-0.643,1c0.964,0.62,1.877,1.334,2.713,2.129  L58.888,13.231z" style=""></path><path fill="currentColor" d="M30.026,17.447c0.628-0.98,1.34-1.888,2.107-2.693l0.011-0.009l-0.861-0.82  c-0.829,0.868-1.588,1.836-2.258,2.879L30.026,17.447z" style=""></path><path fill="currentColor" d="M41.904,8.188c-1.207,0.22-2.395,0.554-3.535,0.994l0.43,1.109c1.068-0.413,2.185-0.726,3.319-0.933  L41.904,8.188z" style=""></path><path fill="currentColor" d="M36.145,10.208c-1.079,0.581-2.105,1.269-3.053,2.041l0.751,0.921c0.89-0.726,1.853-1.369,2.865-1.915  L36.145,10.208z" style=""></path><path fill="currentColor" d="M47.851,9.216l0.156-1.179c-1.215-0.161-2.45-0.207-3.671-0.137l0.067,1.186  C45.55,9.024,46.71,9.063,47.851,9.216z" style=""></path><path fill="currentColor" d="M27.581,9.836C32.11,5.09,38.216,2.394,44.775,2.237c6.564-0.128,12.785,2.257,17.531,6.787  c1.839,1.755,3.39,3.781,4.612,6.024l1.043-0.569c-1.281-2.352-2.907-4.477-4.834-6.315c-4.975-4.749-11.48-7.271-18.38-7.113  c-6.877,0.161-13.278,2.99-18.026,7.966c-1.541,1.614-2.887,3.478-4,5.535l1.046,0.566C24.83,13.151,26.113,11.375,27.581,9.836z" style=""></path><path fill="currentColor" d="M37.52,18.872c4.14-4.341,11.039-4.504,15.379-0.359c1.063,1.012,1.896,2.206,2.476,3.547l1.09-0.471  c-0.643-1.489-1.566-2.814-2.745-3.938c-4.813-4.593-12.466-4.414-17.061,0.399c-0.858,0.903-1.568,1.922-2.108,3.031l1.068,0.52  C36.105,20.605,36.746,19.686,37.52,18.872z" style=""></path><path fill="currentColor" d="M29.081,60.575h-4.044l-2.877,2.853l2.878,2.85h4.043V60.575z M27.892,65.089h-2.366l-1.677-1.661  l1.678-1.664h2.365V65.089z" style=""></path><path fill="currentColor" d="M76.232,53.419c-0.294-2.175-1.315-6.638-4.811-7.387c-1.196-0.26-2.368-0.39-3.482-0.39  c-3.263,0-5.599,1.107-6.671,3.139V25.066h-32.25v23.73c-1.07-2.043-3.408-3.155-6.675-3.155c-1.114,0-2.284,0.13-3.477,0.39  c-3.519,0.752-4.528,5.212-4.812,7.387c-3.212,2.099-5.333,5.605-5.692,9.426C8.287,63.525,6.528,79.522,6.37,81.679  c-0.205,2.758,1.399,6.353,5.406,7.72c3.855,1.307,8.012,0.17,10.65-2.832c0.734-0.843,2.058-2.904,4.04-6.29  c1.756,1.771,4.138,2.772,6.654,2.772c3.625,0,6.896-2.08,8.442-5.333h6.955c1.541,3.253,4.814,5.333,8.444,5.333  c2.585,0,5.012-1.049,6.779-2.906c1.979,3.399,3.362,5.558,4.117,6.427c1.892,2.151,4.572,3.387,7.355,3.387  c1.095,0,2.203-0.188,3.293-0.558c4.001-1.365,5.609-4.959,5.409-7.722c-0.162-2.154-1.923-18.151-1.997-18.822  C81.563,59.026,79.442,55.521,76.232,53.419z M78.124,88.272c-3.411,1.16-7.049,0.156-9.371-2.486  c-0.743-0.857-2.266-3.263-4.4-6.959l-0.438-0.756l-0.543,0.685c-1.565,1.974-3.901,3.104-6.41,3.104  c-3.286,0-6.234-1.95-7.514-4.971l-0.152-0.362h-8.511l-0.153,0.362C39.349,79.91,36.4,81.86,33.12,81.86  c-2.442,0-4.739-1.08-6.302-2.962l-0.544-0.656l-0.427,0.736c-2.141,3.685-3.594,5.977-4.315,6.805  c-2.324,2.646-5.966,3.649-9.373,2.489c-3.917-1.335-4.737-4.718-4.604-6.505c0.157-2.136,1.969-18.627,1.988-18.802  c0.335-3.559,2.346-6.808,5.379-8.689l0.245-0.153l0.033-0.286c0.158-1.396,0.907-5.999,3.915-6.644  c1.112-0.24,2.198-0.362,3.227-0.362c1.78,0,4.907,0.394,5.853,3.048c0.31,0.85,0.568,1.876,0.766,3.046l0.084,0.494h11.376v-0.595  h1.188v-5.111H30.207V26.255h29.873v21.458H48.676v5.706h12.559l0.085-0.492c0.199-1.165,0.457-2.191,0.764-3.053  c0.945-2.649,4.074-3.043,5.856-3.043c1.03,0,2.117,0.122,3.231,0.364c2.906,0.622,3.705,4.854,3.915,6.645l0.033,0.285l0.243,0.151  c3.033,1.885,5.041,5.133,5.376,8.698c0.019,0.166,1.831,16.657,1.994,18.79C82.86,83.555,82.036,86.938,78.124,88.272z   M29.072,48.901h11.35v3.329H30.045c-0.198-1.038-0.442-1.964-0.73-2.756C29.245,49.277,29.163,49.085,29.072,48.901z   M61.206,48.901c-0.091,0.184-0.173,0.376-0.241,0.573c-0.286,0.799-0.529,1.725-0.728,2.756H49.864v-3.329H61.206z" style=""></path><path fill="currentColor" d="M18.836,66.785v4.04h5.703v-4.04l-2.852-2.884L18.836,66.785z M23.35,69.637h-3.326v-2.364l1.663-1.681  l1.663,1.681V69.637z" style=""></path><path fill="currentColor" d="M24.539,60.075v-4.049h-5.703v4.049l2.852,2.875L24.539,60.075z M20.024,57.215h3.326v2.37l-1.663,1.678  l-1.663-1.678V57.215z" style=""></path><path fill="currentColor" d="M18.326,60.575h-4.032v5.702h4.031l3.077-2.85L18.326,60.575z M17.86,65.089h-2.376v-3.325h2.376  l1.794,1.664L17.86,65.089z" style=""></path><path fill="currentColor" d="M33.12,68.865c-2.668,0-4.838,2.164-4.838,4.827c0,2.668,2.17,4.841,4.838,4.841  c2.663,0,4.829-2.173,4.829-4.841C37.949,71.029,35.783,68.865,33.12,68.865z M33.12,77.345c-2.013,0-3.649-1.64-3.649-3.652  c0-2.007,1.637-3.638,3.649-3.638c2.007,0,3.64,1.631,3.64,3.638C36.76,75.705,35.127,77.345,33.12,77.345z" style=""></path><path fill="currentColor" d="M69.074,61.136c1.78,0,3.229-1.448,3.229-3.229c0-1.773-1.449-3.218-3.229-3.218  c-1.774,0-3.219,1.444-3.219,3.218C65.855,59.688,67.3,61.136,69.074,61.136z M69.074,55.878c1.125,0,2.041,0.91,2.041,2.029  c0,1.126-0.916,2.04-2.041,2.04c-1.119,0-2.029-0.914-2.029-2.04C67.045,56.788,67.955,55.878,69.074,55.878z" style=""></path><path fill="currentColor" d="M74.851,60.464c-1.778,0-3.223,1.446-3.223,3.225c0,1.775,1.444,3.223,3.223,3.223s3.227-1.447,3.227-3.223  C78.077,61.91,76.629,60.464,74.851,60.464z M74.851,65.722c-1.122,0-2.034-0.911-2.034-2.033c0-1.124,0.912-2.036,2.034-2.036  c1.123,0,2.038,0.912,2.038,2.036C76.889,64.811,75.974,65.722,74.851,65.722z" style=""></path><path fill="currentColor" d="M69.074,66.23c-1.774,0-3.219,1.449-3.219,3.229c0,1.773,1.444,3.218,3.219,3.218  c1.78,0,3.229-1.444,3.229-3.218C72.304,67.68,70.854,66.23,69.074,66.23z M69.074,71.489c-1.119,0-2.029-0.91-2.029-2.029  c0-1.127,0.91-2.04,2.029-2.04c1.125,0,2.041,0.913,2.041,2.04C71.115,70.579,70.199,71.489,69.074,71.489z" style=""></path><path fill="currentColor" d="M57.283,68.865c-2.664,0-4.833,2.164-4.833,4.827c0,2.668,2.169,4.841,4.833,4.841  c2.666,0,4.835-2.173,4.835-4.841C62.118,71.029,59.949,68.865,57.283,68.865z M57.283,77.345c-2.01,0-3.645-1.64-3.645-3.652  c0-2.007,1.635-3.638,3.645-3.638s3.646,1.631,3.646,3.638C60.93,75.705,59.293,77.345,57.283,77.345z" style=""></path><path fill="currentColor" d="M63.305,60.464c-1.779,0-3.226,1.446-3.226,3.225c0,1.775,1.446,3.223,3.226,3.223  c1.777,0,3.225-1.447,3.225-3.223C66.529,61.91,65.082,60.464,63.305,60.464z M63.305,65.722c-1.124,0-2.036-0.911-2.036-2.033  c0-1.124,0.912-2.036,2.036-2.036c1.122,0,2.036,0.912,2.036,2.036C65.341,64.811,64.427,65.722,63.305,65.722z" style=""></path><rect x="42.965" y="33.829" fill="currentColor" width="0.594" height="3.791" style=""></rect><rect x="42.965" y="38.809" fill="currentColor" width="0.594" height="3.789" style=""></rect><rect x="42.371" y="38.809" fill="currentColor" width="0.594" height="3.789" style=""></rect><rect x="42.371" y="33.829" fill="currentColor" width="0.594" height="3.791" style=""></rect><rect x="43.559" y="37.62" fill="currentColor" width="3.792" height="0.594" style=""></rect><rect x="43.559" y="38.214" fill="currentColor" width="3.792" height="0.595" style=""></rect><rect x="38.578" y="37.62" fill="currentColor" width="3.792" height="0.594" style=""></rect><rect x="38.578" y="38.214" fill="currentColor" width="3.792" height="0.595" style=""></rect><rect x="42.965" y="38.214" fill="currentColor" width="0.594" height="0.595" style=""></rect><rect x="42.371" y="38.214" fill="currentColor" width="0.594" height="0.595" style=""></rect><rect x="42.371" y="37.62" fill="currentColor" width="0.594" height="0.594" style=""></rect><rect x="42.965" y="37.62" fill="currentColor" width="0.594" height="0.594" style=""></rect><path fill="currentColor" d="M48.989,36.125c1.265,0,2.296-1.031,2.296-2.296c0-1.269-1.031-2.296-2.296-2.296  c-1.267,0-2.297,1.028-2.297,2.296C46.692,35.094,47.723,36.125,48.989,36.125z M48.989,32.127c0.939,0,1.701,0.762,1.701,1.702  c0,0.94-0.762,1.702-1.701,1.702c-0.94,0-1.702-0.762-1.702-1.702C47.287,32.889,48.049,32.127,48.989,32.127z" style=""></path><path fill="currentColor" d="M48.989,35.531c0.939,0,1.701-0.762,1.701-1.702c0-0.94-0.762-1.702-1.701-1.702  c-0.94,0-1.702,0.762-1.702,1.702C47.287,34.769,48.049,35.531,48.989,35.531z M48.989,32.721c0.61,0,1.106,0.497,1.106,1.108  c0,0.61-0.496,1.107-1.106,1.107c-0.611,0-1.108-0.497-1.108-1.107C47.881,33.218,48.378,32.721,48.989,32.721z" style=""></path><path d="M56.544,28.861H33.743v16.036h22.801V28.861z M55.32,43.673H34.966V30.084H55.32V43.673z" style="" fill="currentColor"></path><rect x="40.422" y="53.419" fill="currentColor" width="1.188" height="4.092" style=""></rect><rect x="40.422" y="52.824" fill="currentColor" width="1.188" height="0.595" style=""></rect></svg>