<svg xmlns="http://www.w3.org/2000/svg" xmlns:xlink="http://www.w3.org/1999/xlink" version="1.1" x="0px" y="0px" viewBox="0 0 100 100" enable-background="new 0 0 100 100" xml:space="preserve" style="max-width:100%" height="100%"><g style="" fill="currentColor"><g style="" fill="currentColor"><path d="M69.332,56.323c8.393,0,15.221-6.828,15.221-15.221s-6.828-15.221-15.221-15.221c-8.394,0-15.222,6.828-15.222,15.221    S60.938,56.323,69.332,56.323z M69.332,27.581c7.455,0,13.521,6.066,13.521,13.521s-6.066,13.521-13.521,13.521    c-7.456,0-13.522-6.066-13.522-13.521S61.876,27.581,69.332,27.581z" style="" fill="currentColor"></path><path d="M69.331,52.505c6.287,0,11.402-5.115,11.402-11.402S75.618,29.7,69.331,29.7c-6.286,0-11.4,5.115-11.4,11.402    S63.045,52.505,69.331,52.505z M69.331,31.399c5.351,0,9.703,4.353,9.703,9.703s-4.353,9.703-9.703,9.703    c-5.349,0-9.701-4.353-9.701-9.703S63.982,31.399,69.331,31.399z" style="" fill="currentColor"></path><path d="M90.134,54.456V26.78c0-3.075-2.501-5.576-5.576-5.576H38.8v-1.387v-1.301c0-1-0.812-1.812-1.812-1.812h-9.146    c-1,0-1.812,0.812-1.812,1.812v1.301v1.387h-5.05c-3.075,0-5.576,2.501-5.576,5.576v31.91h-1.387h-1.301    c-1,0-1.812,0.812-1.812,1.812v9.145c0,1,0.812,1.812,1.812,1.812h1.301h1.387v2.189c0,3.074,2.501,5.574,5.576,5.574h1.438v4.947    h60.699v-4.947h1.439c3.075,0,5.576-2.5,5.576-5.574V54.591c0.001-0.045,0.007-0.089,0.007-0.135H90.134z M14.018,69.761h-1.301    c-0.062,0-0.113-0.051-0.113-0.113v-9.145c0-0.062,0.051-0.113,0.113-0.113h1.301h1.387v9.371H14.018z M84.558,22.903    c2.138,0,3.877,1.739,3.877,3.877v27.743c-0.037,2.809-2.327,5.083-5.144,5.083H54.456c-2.84,0-5.15-2.311-5.15-5.15V28.054    c0-2.84,2.311-5.15,5.15-5.15H84.558z M27.729,19.817v-1.301c0-0.062,0.051-0.113,0.113-0.113h9.146    c0.062,0,0.112,0.051,0.112,0.113v1.301v1.387h-9.371V19.817z M81.419,82.472H24.118v-3.248h57.301V82.472z M88.435,73.649    c0,2.137-1.739,3.875-3.877,3.875H20.98c-2.138,0-3.877-1.738-3.877-3.875V26.78c0-2.138,1.739-3.877,3.877-3.877h28.975    c-1.437,1.257-2.349,3.097-2.349,5.15v26.402c0,3.777,3.072,6.85,6.85,6.85h28.835c2.05,0,3.888-0.909,5.144-2.341V73.649z" style="" fill="currentColor"></path><path d="M41.54,28.515H23.29c-1.571,0-2.85,1.278-2.85,2.85v18.467c0,1.571,1.278,2.85,2.85,2.85h18.25    c1.571,0,2.85-1.278,2.85-2.85V31.364C44.39,29.793,43.111,28.515,41.54,28.515z M42.69,49.831c0,0.634-0.517,1.15-1.15,1.15    H23.29c-0.634,0-1.15-0.517-1.15-1.15V31.364c0-0.634,0.517-1.15,1.15-1.15h18.25c0.634,0,1.15,0.517,1.15,1.15V49.831z" style="" fill="currentColor"></path><path d="M32.415,57.993c-4.065,0-7.372,3.307-7.372,7.371c0,4.066,3.307,7.375,7.372,7.375s7.372-3.309,7.372-7.375    C39.787,61.3,36.48,57.993,32.415,57.993z M32.415,71.04c-3.128,0-5.673-2.546-5.673-5.676c0-3.127,2.545-5.672,5.673-5.672    s5.673,2.545,5.673,5.672C38.088,68.494,35.543,71.04,32.415,71.04z" style="" fill="currentColor"></path><path d="M69.331,48.476c4.065,0,7.373-3.308,7.373-7.373s-3.308-7.373-7.373-7.373c-4.064,0-7.371,3.308-7.371,7.373    S65.267,48.476,69.331,48.476z M69.331,35.429c3.128,0,5.674,2.546,5.674,5.674s-2.546,5.674-5.674,5.674    c-3.127,0-5.672-2.546-5.672-5.674S66.204,35.429,69.331,35.429z" style="" fill="currentColor"></path><rect x="25.209" y="39.749" width="10.354" height="1.699" style="" fill="currentColor"></rect><rect x="37.014" y="39.749" width="2.607" height="1.699" style="" fill="currentColor"></rect></g></g></svg>