<svg xmlns="http://www.w3.org/2000/svg" xmlns:xlink="http://www.w3.org/1999/xlink" version="1.1" x="0px" y="0px" viewBox="0 0 91 91" enable-background="new 0 0 91 91" xml:space="preserve" style="max-width:100%" height="100%"><path fill="none" d="M45.732,21.354c2.274,0,4.125,1.851,4.125,4.124h-1.25c0-1.585-1.289-2.874-2.875-2.874V21.354z" style=""></path><path fill="currentColor" d="M30.471,67.061c-0.742-0.953-1.398-1.98-1.953-3.057l-1.11,0.57c0.589,1.146,1.288,2.242,2.077,3.255  L30.471,67.061z" style=""></path><path fill="currentColor" d="M55.031,73.496c1.148-0.584,2.244-1.282,3.26-2.073l-0.767-0.986c-0.954,0.742-1.983,1.396-3.06,1.946  L55.031,73.496z" style=""></path><path fill="currentColor" d="M34.878,71.179c-0.997-0.677-1.939-1.452-2.8-2.308l-0.882,0.887c0.915,0.91,1.919,1.736,2.981,2.456  L34.878,71.179z" style=""></path><path fill="currentColor" d="M39.994,74.932l0.344-1.201c-1.16-0.332-2.296-0.779-3.374-1.326l-0.566,1.115  C37.548,74.104,38.758,74.577,39.994,74.932z" style=""></path><path fill="currentColor" d="M48.928,75.479c1.272-0.203,2.531-0.525,3.74-0.96l-0.422-1.177c-1.137,0.408-2.318,0.713-3.514,0.9  L48.928,75.479z" style=""></path><path fill="currentColor" d="M42.51,75.485c1.046,0.163,2.115,0.247,3.182,0.247c0.225,0,0.447-0.003,0.672-0.01l-0.041-1.25  c-1.227,0.041-2.434-0.037-3.619-0.223L42.51,75.485z" style=""></path><path fill="currentColor" d="M62.677,66.735l-1.035-0.698c-0.685,1.011-1.455,1.951-2.292,2.788l-0.01,0.01l0.894,0.874  C61.127,68.815,61.949,67.814,62.677,66.735z" style=""></path><path fill="currentColor" d="M68.165,68.64c-1.168,2.041-2.561,3.877-4.141,5.456c-4.878,4.879-11.363,7.566-18.263,7.566  s-13.385-2.688-18.263-7.566c-1.89-1.889-3.471-4.057-4.701-6.445l-1.11,0.572c1.289,2.502,2.946,4.777,4.928,6.758  c5.113,5.114,11.914,7.932,19.146,7.932s14.033-2.817,19.146-7.932c1.658-1.658,3.119-3.582,4.341-5.721L68.165,68.64z" style=""></path><path fill="currentColor" d="M45.712,68.947c3.248,0,6.497-1.235,8.971-3.709c0.923-0.922,1.694-1.977,2.294-3.135l-1.111-0.573  c-0.539,1.042-1.235,1.992-2.066,2.825c-4.461,4.46-11.715,4.457-16.176,0c-1.092-1.094-1.939-2.369-2.515-3.792l-1.159,0.469  c0.64,1.579,1.578,2.995,2.79,4.206C39.213,67.712,42.462,68.947,45.712,68.947z" style=""></path><path fill="currentColor" d="M90.282,22.253c-0.231-1.016-0.589-1.892-2.631-2.358c-0.84-0.19-3.396-0.77-7.058-0.77  c-1.825,0-3.721,0.143-5.637,0.42c-0.9,0.133-1.617,0.273-2.041,0.406c-1.48,0.209-2.842-0.184-4.323-0.605  c-1.407-0.403-2.862-0.816-4.606-0.823l-1.7-0.005c-2.483,0-3.622,0.063-4.103,0.672c-0.191,0.241-0.255,0.549-0.18,0.871  l0.034,0.148c0.232,1.014,0.59,1.893,2.631,2.354c0.841,0.191,3.398,0.77,7.066,0.77c1.277,0,2.597-0.093,3.927-0.232  c0.033-0.205,0.062-0.412,0.081-0.625c-5.403,0.576-9.156-0.119-10.937-0.521c-1.945-0.439-1.998-1.214-2.194-2.039  c-0.195-0.825,1.579-0.779,5.372-0.767c3.537,0.013,6.017,1.849,9.02,1.421c0.254-0.073,0.58-0.148,0.975-0.225  c0.905-0.313,1.901-0.464,2.617-0.464c0.212,0,0.401,0.013,0.576,0.034c5.092-0.469,8.627,0.203,10.342,0.591  c1.944,0.442,1.998,1.214,2.193,2.038c0.195,0.828-1.578,0.779-5.371,0.768c-2.32-0.008-4.185-0.791-6.04-1.217  c-0.035,0.208-0.083,0.41-0.13,0.613c0.514,0.117,1.029,0.256,1.562,0.408c1.407,0.4,2.862,0.814,4.606,0.82l1.678,0.004  c2.499,0,3.645-0.063,4.124-0.668c0.191-0.242,0.255-0.553,0.179-0.872L90.282,22.253z" style=""></path><path fill="currentColor" d="M75.316,21.889c-0.454,0.133-1.113,0.27-2.043,0.406c-0.071,0.012-0.135,0.014-0.207,0.023  c-0.027,0.052-0.063,0.104-0.066,0.152c-0.013,0.168-0.041,0.326-0.061,0.49c0.143-0.02,0.283-0.027,0.426-0.047  c0.914-0.137,1.61-0.275,2.039-0.407c0.521-0.073,1.027-0.056,1.531-0.005c0.047-0.2,0.085-0.408,0.12-0.615  C76.488,21.826,75.913,21.804,75.316,21.889z" style=""></path><path fill="currentColor" d="M73,22.471c0.004-0.049,0.039-0.101,0.066-0.152c-0.455,0.064-0.889,0.11-1.323,0.156  c-0.02,0.213-0.048,0.42-0.081,0.625c0.426-0.043,0.849-0.082,1.277-0.139C72.959,22.797,72.987,22.639,73,22.471z" style=""></path><path fill="currentColor" d="M77.172,19.914c-0.175-0.021-0.364-0.034-0.576-0.034c-0.716,0-1.712,0.151-2.617,0.464  c0.31-0.061,0.659-0.119,1.068-0.178C75.783,20.059,76.489,19.978,77.172,19.914z" style=""></path><path fill="currentColor" d="M77.056,21.887c-0.035,0.207-0.073,0.415-0.12,0.615c0.41,0.041,0.82,0.109,1.23,0.205  c0.047-0.203,0.095-0.405,0.13-0.613C77.885,21.999,77.472,21.934,77.056,21.887z" style=""></path><path fill="currentColor" d="M76.238,21.198c-0.292,0-0.598,0.024-0.956,0.073c-1.059,0.215-1.993,0.64-2.216,1.047  c0.072-0.01,0.136-0.012,0.207-0.023c0.93-0.137,1.589-0.273,2.043-0.406c0.597-0.085,1.172-0.063,1.739-0.002  c0.035-0.207,0.074-0.418,0.098-0.633C76.854,21.221,76.549,21.198,76.238,21.198z" style=""></path><path fill="currentColor" d="M71.92,21.816c-1.42,0.16-2.827,0.266-4.185,0.266c-3.527,0-5.983-0.557-6.79-0.737  c-1.435-0.327-1.532-0.732-1.687-1.406c0.534-0.171,2.191-0.171,3.027-0.171l1.696,0.005c1.57,0.005,2.941,0.396,4.268,0.774  c1.285,0.365,2.5,0.713,3.831,0.713c0.082,0,0.17-0.008,0.253-0.01c0.412-0.396,1.007-0.689,1.645-0.906  c-0.395,0.076-0.721,0.151-0.975,0.225c-3.003,0.428-5.482-1.408-9.02-1.421c-3.793-0.013-5.567-0.059-5.372,0.767  c0.196,0.825,0.249,1.6,2.194,2.039c1.78,0.402,5.533,1.098,10.937,0.521c0.003-0.033,0.01-0.065,0.013-0.1  C71.771,22.175,71.835,21.989,71.92,21.816z" style=""></path><path fill="currentColor" d="M78.271,20.463c0.783-0.051,1.563-0.088,2.323-0.088c3.522,0,5.975,0.557,6.78,0.738  c1.435,0.326,1.533,0.734,1.687,1.408c-0.535,0.168-2.206,0.168-3.049,0.168l-1.674-0.004c-1.57-0.006-2.941-0.396-4.268-0.774  c-0.572-0.163-1.133-0.317-1.693-0.444c-0.025,0.21-0.046,0.422-0.081,0.627c1.855,0.426,3.72,1.209,6.04,1.217  c3.793,0.012,5.566,0.061,5.371-0.768c-0.195-0.824-0.249-1.596-2.193-2.038c-1.715-0.388-5.25-1.06-10.342-0.591  c0.474,0.061,0.814,0.203,1.025,0.43C78.23,20.378,78.243,20.424,78.271,20.463z" style=""></path><path fill="currentColor" d="M73.18,21.169c0.457-0.134,1.113-0.264,1.957-0.386c1.056-0.154,2.101-0.252,3.134-0.32  c-0.027-0.039-0.04-0.085-0.073-0.119c-0.211-0.227-0.552-0.369-1.025-0.43c-0.683,0.063-1.389,0.145-2.125,0.252  c-0.409,0.059-0.759,0.117-1.068,0.178c-0.638,0.217-1.232,0.51-1.645,0.906C72.59,21.24,72.855,21.221,73.18,21.169z" style=""></path><path fill="currentColor" d="M75.282,21.271c-0.049,0.008-0.089,0.01-0.142,0.018c-0.454,0.134-1.113,0.264-1.957,0.388  c-0.425,0.062-0.842,0.091-1.264,0.14c-0.085,0.173-0.148,0.358-0.164,0.559c-0.003,0.034-0.01,0.066-0.013,0.1  c0.435-0.046,0.868-0.092,1.323-0.156C73.289,21.911,74.224,21.486,75.282,21.271z" style=""></path><path fill="currentColor" d="M77.153,21.254c-0.023,0.215-0.063,0.426-0.098,0.633c0.416,0.047,0.829,0.112,1.24,0.207  c0.035-0.205,0.056-0.417,0.081-0.627C77.973,21.377,77.567,21.301,77.153,21.254z" style=""></path><path fill="currentColor" d="M46.916,46.869c-0.091-0.305-0.013-0.629,0.207-0.85c0.219-0.219,0.541-0.295,0.848-0.205l0.182-0.598  c-0.526-0.161-1.092-0.02-1.472,0.361c-0.382,0.383-0.521,0.947-0.362,1.473L46.916,46.869z" style=""></path><path fill="currentColor" d="M45.475,18.986c-3.58,0-6.492,2.912-6.492,6.492c0,3.581,2.912,6.494,6.492,6.494s6.493-2.913,6.493-6.494  C51.968,21.898,49.055,18.986,45.475,18.986z M45.475,30.723c-2.891,0-5.242-2.354-5.242-5.244s2.352-5.242,5.242-5.242  s5.243,2.352,5.243,5.242S48.365,30.723,45.475,30.723z" style=""></path><path fill="currentColor" d="M45.732,21.354v1.25c1.586,0,2.875,1.289,2.875,2.874h1.25C49.857,23.205,48.007,21.354,45.732,21.354z" style=""></path><path fill="currentColor" d="M53.227,35.588c0.15-0.293,0.287-0.598,0.417-0.908c7.914-0.713,18.309-3.279,19.347-11.719  c-0.428,0.057-0.852,0.096-1.276,0.139c-1.124,7.19-10.263,9.557-17.592,10.283c0.464-1.481,0.722-3.107,0.722-4.812  c0-6.882-4.18-12.483-9.317-12.483s-9.317,5.602-9.317,12.483c0,1.431,0.188,2.803,0.521,4.082  c-6.252-1.204-14.431-3.929-16.173-10.013c0.608,0.125,1.22,0.293,1.854,0.475c1.406,0.4,2.861,0.814,4.603,0.82l1.679,0.004  c2.499,0,3.644-0.063,4.125-0.668c0.19-0.242,0.255-0.553,0.18-0.872l-0.033-0.146c-0.23-1.016-0.589-1.892-2.631-2.358  c-0.84-0.19-3.397-0.77-7.06-0.77c-1.823,0-3.721,0.143-5.636,0.42c-0.899,0.133-1.614,0.273-2.04,0.406  c-1.477,0.209-2.842-0.184-4.324-0.605c-1.408-0.403-2.863-0.816-4.604-0.823l-1.7-0.005c-2.484,0-3.622,0.063-4.104,0.672  c-0.191,0.241-0.255,0.549-0.18,0.869l0.035,0.148c0.229,1.016,0.587,1.893,2.63,2.355c0.84,0.191,3.396,0.77,7.065,0.77  c1.059,0,2.145-0.061,3.242-0.156c1.428,10.48,15.826,13.283,25.129,13.989c0.314,0.444,0.654,0.856,1.016,1.233  c-3.896,2.66-6.607,7.937-6.822,14.072c-0.017,0.002-0.033,0.002-0.051,0.004c-1.971,0.179-3.443,1.211-3.443,2.51h1.25  c0-0.612,1.192-1.296,2.789-1.296s2.789,0.684,2.789,1.296h1.25c0-1.286-1.443-2.314-3.386-2.507  c-0.205-0.02-0.413-0.036-0.628-0.039c0.009,0,0.018,0,0.025,0c0.225,0,0.439,0.02,0.653,0.039  c0.214-5.854,2.82-10.853,6.517-13.213c0.308,0.249,0.625,0.476,0.955,0.677c-0.918,0.723-1.518,1.83-1.518,3.086v2.795  c0,2.176,1.77,3.945,3.946,3.945h2.793c2.177,0,3.946-1.77,3.946-3.945v-2.795c0-1.256-0.601-2.363-1.519-3.086  c0.331-0.201,0.648-0.428,0.956-0.677c3.695,2.36,6.301,7.358,6.516,13.21c-0.017,0.003-0.034,0.003-0.051,0.003  c-1.942,0.192-3.387,1.221-3.387,2.507h1.25c0-0.612,1.194-1.296,2.791-1.296c1.596,0,2.788,0.684,2.788,1.296h1.25  c0-1.299-1.474-2.331-3.444-2.51c-0.187-0.017-0.374-0.033-0.568-0.036c0.009,0,0.018,0,0.025,0c0.204,0,0.399,0.02,0.595,0.036  c-0.214-6.14-2.925-11.416-6.821-14.076c0.42-0.439,0.809-0.926,1.166-1.453c8.16-0.938,23.497-4.058,25.802-14.238  c-0.41-0.096-0.82-0.164-1.23-0.205C74.878,31.514,61.262,34.567,53.227,35.588z M13.638,21.921  c-1.091,0.098-2.171,0.161-3.222,0.161c-3.529,0-5.982-0.557-6.789-0.737c-1.436-0.327-1.533-0.732-1.686-1.406  c0.533-0.171,2.19-0.171,3.027-0.171l1.695,0.005c1.57,0.005,2.941,0.396,4.268,0.774c1.069,0.305,2.091,0.583,3.17,0.671  c0.219,0.02,0.436,0.042,0.66,0.042c0.334,0,0.669-0.022,1.1-0.091c0.457-0.134,1.115-0.264,1.956-0.386  c0.777-0.112,1.548-0.19,2.315-0.256c1.063-0.094,2.115-0.152,3.141-0.152c3.522,0,5.977,0.557,6.783,0.738  c1.434,0.326,1.533,0.734,1.686,1.408c-0.535,0.168-2.207,0.168-3.05,0.168l-1.673-0.004c-1.571-0.006-2.941-0.396-4.267-0.774  c-0.83-0.237-1.634-0.454-2.455-0.586c-0.419-0.068-0.843-0.114-1.279-0.12c-0.034,0-0.065-0.007-0.101-0.007  c-0.33,0-0.666,0.022-1.097,0.091c-0.453,0.134-1.111,0.264-1.957,0.388c-0.104,0.015-0.206,0.02-0.312,0.034  C14.911,21.799,14.272,21.865,13.638,21.921z M14.9,23.039c0.382-0.044,0.76-0.068,1.145-0.125c0.917-0.137,1.612-0.275,2.04-0.407  c0.386-0.056,0.763-0.065,1.138-0.049c1.593,7.197,10.58,10.259,17.932,11.558c0.234,0.645,0.507,1.258,0.818,1.834  C29.042,35.075,16.2,32.331,14.9,23.039z M49.619,43.027v2.795c0,1.486-1.21,2.695-2.696,2.695H44.13  c-1.487,0-2.696-1.209-2.696-2.695v-2.795c0-1.09,0.651-2.021,1.582-2.449c0.514,0.195,1.043,0.34,1.589,0.412  c-0.6,0.159-1.153,0.462-1.603,0.911c-0.674,0.674-1.047,1.569-1.047,2.524c0,0.952,0.371,1.851,1.047,2.524  c0.695,0.696,1.609,1.042,2.524,1.042c0.914,0,1.828-0.346,2.524-1.042c0.674-0.674,1.045-1.572,1.045-2.524  c0-0.955-0.371-1.851-1.045-2.524c-0.449-0.449-1.004-0.752-1.604-0.911c0.546-0.072,1.076-0.217,1.59-0.412  C48.967,41.006,49.619,41.938,49.619,43.027z M45.521,43.906c0.49-0.677,0.621-1.561,0.326-2.35l-0.586,0.221  c0.257,0.684,0.082,1.465-0.442,1.992c-0.527,0.527-1.309,0.697-1.992,0.441l-0.212,0.564c-0.014-0.115-0.035-0.23-0.035-0.35  c0-0.786,0.307-1.525,0.863-2.082c0.574-0.574,1.328-0.862,2.083-0.862c0.754,0,1.509,0.288,2.082,0.862  c1.149,1.146,1.149,3.015,0,4.164c-1.147,1.148-3.018,1.148-4.165,0c-0.467-0.469-0.744-1.066-0.826-1.711  c0.278,0.105,0.568,0.156,0.857,0.156c0.525,0,1.046-0.166,1.481-0.48c0.023,0.266,0.247,0.473,0.519,0.473  c0.287,0,0.521-0.234,0.521-0.52C45.996,44.152,45.787,43.93,45.521,43.906z M52.238,34.789c-0.162,0.338-0.336,0.664-0.524,0.975  c-0.293,0.49-0.618,0.939-0.967,1.353c-0.186,0.222-0.38,0.43-0.581,0.628c-0.331,0.324-0.68,0.612-1.046,0.866  c-0.356,0.249-0.727,0.469-1.111,0.642c-0.475,0.215-0.97,0.364-1.479,0.455c-0.329,0.056-0.662,0.095-1.003,0.095  s-0.674-0.039-1.004-0.095c-0.509-0.091-1.005-0.24-1.479-0.455c-0.385-0.173-0.754-0.393-1.11-0.642  c-0.366-0.254-0.716-0.542-1.046-0.866c-0.154-0.152-0.307-0.306-0.452-0.469c-0.348-0.398-0.668-0.838-0.964-1.309  c-0.336-0.53-0.634-1.106-0.895-1.719c-0.183-0.433-0.353-0.879-0.492-1.348c-0.402-1.334-0.625-2.796-0.625-4.329  c0-6.194,3.619-11.233,8.067-11.233s8.067,5.039,8.067,11.233c0,1.771-0.304,3.44-0.83,4.929  C52.607,33.947,52.436,34.379,52.238,34.789z" style=""></path></svg>