<svg width="2160" height="1240" viewBox="0 0 2160 1240" fill="none" xmlns="http://www.w3.org/2000/svg">
<rect width="2160" height="1240" fill="white"/>
<path d="M448.5 313.25C448.5 344.75 445.083 372.167 438.25 395.5C431.583 418.667 422.25 437.833 410.25 453C398.417 468.167 384.333 479.5 368 487C351.833 494.333 334.333 498 315.5 498C296.667 498 279.167 494.333 263 487C247 479.5 233.083 468.167 221.25 453C209.417 437.833 200.167 418.667 193.5 395.5C186.833 372.167 183.5 344.75 183.5 313.25C183.5 281.583 186.833 254.167 193.5 231C200.167 207.833 209.417 188.667 221.25 173.5C233.083 158.333 247 147.083 263 139.75C279.167 132.25 296.667 128.5 315.5 128.5C334.333 128.5 351.833 132.25 368 139.75C384.333 147.083 398.417 158.333 410.25 173.5C422.25 188.667 431.583 207.833 438.25 231C445.083 254.167 448.5 281.583 448.5 313.25ZM384.75 313.25C384.75 287.083 382.833 265.417 379 248.25C375.167 231.083 370 217.417 363.5 207.25C357.167 197.083 349.833 190 341.5 186C333.167 181.833 324.5 179.75 315.5 179.75C306.667 179.75 298.083 181.833 289.75 186C281.583 190 274.333 197.083 268 207.25C261.667 217.417 256.583 231.083 252.75 248.25C249.083 265.417 247.25 287.083 247.25 313.25C247.25 339.417 249.083 361.083 252.75 378.25C256.583 395.417 261.667 409.083 268 419.25C274.333 429.417 281.583 436.583 289.75 440.75C298.083 444.75 306.667 446.75 315.5 446.75C324.5 446.75 333.167 444.75 341.5 440.75C349.833 436.583 357.167 429.417 363.5 419.25C370 409.083 375.167 395.417 379 378.25C382.833 361.083 384.75 339.417 384.75 313.25ZM611.539 128.5C628.206 128.5 643.456 131 657.289 136C671.122 140.833 682.956 147.75 692.789 156.75C702.622 165.75 710.289 176.583 715.789 189.25C721.289 201.917 724.039 216 724.039 231.5C724.039 244.833 722.039 257.167 718.039 268.5C714.206 279.833 708.956 290.667 702.289 301C695.789 311.333 688.122 321.333 679.289 331C670.456 340.667 661.206 350.5 651.539 360.5L570.039 443.75C578.039 441.417 585.872 439.667 593.539 438.5C601.206 437.167 608.539 436.5 615.539 436.5H708.289C714.956 436.5 720.206 438.417 724.039 442.25C728.039 445.917 730.039 450.833 730.039 457V494H482.039V473.5C482.039 469.333 482.872 465 484.539 460.5C486.372 456 489.206 451.833 493.039 448L602.789 338C611.956 328.667 620.122 319.75 627.289 311.25C634.622 302.75 640.706 294.333 645.539 286C650.539 277.667 654.289 269.25 656.789 260.75C659.456 252.083 660.789 243 660.789 233.5C660.789 224.833 659.539 217.25 657.039 210.75C654.539 204.083 650.956 198.5 646.289 194C641.622 189.5 636.039 186.167 629.539 184C623.206 181.667 616.039 180.5 608.039 180.5C593.206 180.5 580.956 184.25 571.289 191.75C561.789 199.25 555.122 209.333 551.289 222C549.456 228.333 546.706 232.917 543.039 235.75C539.372 238.417 534.706 239.75 529.039 239.75C526.539 239.75 523.789 239.5 520.789 239L488.289 233.25C490.789 215.917 495.622 200.75 502.789 187.75C509.956 174.583 518.872 163.667 529.539 155C540.372 146.167 552.706 139.583 566.539 135.25C580.539 130.75 595.539 128.5 611.539 128.5Z" fill="#F0F0F0"/>
</svg>
