<svg width="2160" height="1240" viewBox="0 0 2160 1240" fill="none" xmlns="http://www.w3.org/2000/svg">
<rect width="2160" height="1240" fill="white"/>
<path d="M448.5 313.25C448.5 344.75 445.083 372.167 438.25 395.5C431.583 418.667 422.25 437.833 410.25 453C398.417 468.167 384.333 479.5 368 487C351.833 494.333 334.333 498 315.5 498C296.667 498 279.167 494.333 263 487C247 479.5 233.083 468.167 221.25 453C209.417 437.833 200.167 418.667 193.5 395.5C186.833 372.167 183.5 344.75 183.5 313.25C183.5 281.583 186.833 254.167 193.5 231C200.167 207.833 209.417 188.667 221.25 173.5C233.083 158.333 247 147.083 263 139.75C279.167 132.25 296.667 128.5 315.5 128.5C334.333 128.5 351.833 132.25 368 139.75C384.333 147.083 398.417 158.333 410.25 173.5C422.25 188.667 431.583 207.833 438.25 231C445.083 254.167 448.5 281.583 448.5 313.25ZM384.75 313.25C384.75 287.083 382.833 265.417 379 248.25C375.167 231.083 370 217.417 363.5 207.25C357.167 197.083 349.833 190 341.5 186C333.167 181.833 324.5 179.75 315.5 179.75C306.667 179.75 298.083 181.833 289.75 186C281.583 190 274.333 197.083 268 207.25C261.667 217.417 256.583 231.083 252.75 248.25C249.083 265.417 247.25 287.083 247.25 313.25C247.25 339.417 249.083 361.083 252.75 378.25C256.583 395.417 261.667 409.083 268 419.25C274.333 429.417 281.583 436.583 289.75 440.75C298.083 444.75 306.667 446.75 315.5 446.75C324.5 446.75 333.167 444.75 341.5 440.75C349.833 436.583 357.167 429.417 363.5 419.25C370 409.083 375.167 395.417 379 378.25C382.833 361.083 384.75 339.417 384.75 313.25ZM617.289 128.5C633.956 128.5 648.956 130.917 662.289 135.75C675.789 140.417 687.289 147 696.789 155.5C706.289 163.833 713.539 173.667 718.539 185C723.706 196.333 726.289 208.583 726.289 221.75C726.289 233.25 724.956 243.417 722.289 252.25C719.789 260.917 716.039 268.5 711.039 275C706.206 281.5 700.206 287 693.039 291.5C686.039 296 678.039 299.75 669.039 302.75C690.706 309.583 706.872 320 717.539 334C728.206 348 733.539 365.583 733.539 386.75C733.539 404.75 730.206 420.667 723.539 434.5C716.872 448.333 707.872 460 696.539 469.5C685.206 478.833 672.039 485.917 657.039 490.75C642.206 495.583 626.456 498 609.789 498C591.622 498 575.789 495.917 562.289 491.75C548.789 487.583 537.039 481.417 527.039 473.25C517.039 465.083 508.539 455.083 501.539 443.25C494.539 431.417 488.539 417.75 483.539 402.25L510.789 391C515.456 389 520.206 388 525.039 388C529.372 388 533.206 388.917 536.539 390.75C540.039 392.583 542.706 395.25 544.539 398.75C547.539 404.583 550.789 410.333 554.289 416C557.956 421.667 562.289 426.75 567.289 431.25C572.289 435.583 578.122 439.167 584.789 442C591.622 444.667 599.706 446 609.039 446C619.539 446 628.706 444.333 636.539 441C644.372 437.5 650.872 433 656.039 427.5C661.372 422 665.289 415.917 667.789 409.25C670.456 402.417 671.789 395.583 671.789 388.75C671.789 380.083 670.872 372.25 669.039 365.25C667.206 358.083 663.372 352 657.539 347C651.706 342 643.289 338.083 632.289 335.25C621.456 332.417 606.872 331 588.539 331V287C603.706 286.833 616.289 285.417 626.289 282.75C636.289 280.083 644.206 276.417 650.039 271.75C656.039 266.917 660.206 261.167 662.539 254.5C664.872 247.833 666.039 240.5 666.039 232.5C666.039 215.333 661.372 202.417 652.039 193.75C642.706 184.917 629.956 180.5 613.789 180.5C599.122 180.5 586.956 184.417 577.289 192.25C567.622 199.917 560.872 209.833 557.039 222C555.039 228.333 552.289 232.917 548.789 235.75C545.289 238.417 540.706 239.75 535.039 239.75C532.372 239.75 529.539 239.5 526.539 239L494.039 233.25C496.539 215.917 501.372 200.75 508.539 187.75C515.706 174.583 524.622 163.667 535.289 155C546.122 146.167 558.456 139.583 572.289 135.25C586.289 130.75 601.289 128.5 617.289 128.5Z" fill="#F0F0F0"/>
</svg>
