<svg width="2160" height="1240" viewBox="0 0 2160 1240" fill="none" xmlns="http://www.w3.org/2000/svg">
<rect width="2160" height="1240" fill="white"/>
<path d="M448.5 313.25C448.5 344.75 445.083 372.167 438.25 395.5C431.583 418.667 422.25 437.833 410.25 453C398.417 468.167 384.333 479.5 368 487C351.833 494.333 334.333 498 315.5 498C296.667 498 279.167 494.333 263 487C247 479.5 233.083 468.167 221.25 453C209.417 437.833 200.167 418.667 193.5 395.5C186.833 372.167 183.5 344.75 183.5 313.25C183.5 281.583 186.833 254.167 193.5 231C200.167 207.833 209.417 188.667 221.25 173.5C233.083 158.333 247 147.083 263 139.75C279.167 132.25 296.667 128.5 315.5 128.5C334.333 128.5 351.833 132.25 368 139.75C384.333 147.083 398.417 158.333 410.25 173.5C422.25 188.667 431.583 207.833 438.25 231C445.083 254.167 448.5 281.583 448.5 313.25ZM384.75 313.25C384.75 287.083 382.833 265.417 379 248.25C375.167 231.083 370 217.417 363.5 207.25C357.167 197.083 349.833 190 341.5 186C333.167 181.833 324.5 179.75 315.5 179.75C306.667 179.75 298.083 181.833 289.75 186C281.583 190 274.333 197.083 268 207.25C261.667 217.417 256.583 231.083 252.75 248.25C249.083 265.417 247.25 287.083 247.25 313.25C247.25 339.417 249.083 361.083 252.75 378.25C256.583 395.417 261.667 409.083 268 419.25C274.333 429.417 281.583 436.583 289.75 440.75C298.083 444.75 306.667 446.75 315.5 446.75C324.5 446.75 333.167 444.75 341.5 440.75C349.833 436.583 357.167 429.417 363.5 419.25C370 409.083 375.167 395.417 379 378.25C382.833 361.083 384.75 339.417 384.75 313.25ZM528.289 447.75H601.539V237C601.539 228.833 601.789 220.25 602.289 211.25L550.289 254.75C548.122 256.583 545.872 257.833 543.539 258.5C541.372 259.167 539.206 259.5 537.039 259.5C533.706 259.5 530.622 258.833 527.789 257.5C525.122 256 523.122 254.333 521.789 252.5L502.289 225.75L612.539 132H663.289V447.75H728.289V494H528.289V447.75Z" fill="#F0F0F0"/>
</svg>
